<svg width="90" height="39" xmlns="http://www.w3.org/2000/svg" viewBox="0 0 128 55"><g fill="#000" fill-rule="evenodd"><path d="M14.366 11.921c-1.17.46-2.399.875-3.655 1.232-1.406.399-3.219.752-4.764-.07a2.148 2.148 0 0 1-1.133-1.554 2.145 2.145 0 0 1 .578-1.824c.72-.764 1.7-1.169 2.832-1.169 1.59 0 3.348.777 4.948 2.19.414.365.815.766 1.194 1.195zm4.371 29.91c-1.13 3.854-2.687 6.405-4.765 7.798-.99.664-2.004 1.095-3.013 1.282-2.702.498-5.371-1.062-6.353-3.707-.92-2.476-.642-5.592.844-9.521 2.107-4.958 6.503-9.677 12.379-13.288.471-.29.953-.573 1.435-.843.172 1 .312 2.043.415 3.104.602 6.163-.067 12.186-.942 15.174zm18.295-23.375l-.113-3.819-.22.007c-4.863.147-9.998 1.321-14.868 3.399a28.081 28.081 0 0 0-1.844-4.528c4.868-2.63 8.921-6.254 12.05-10.772l.127-.184L29.047.39l-.125.182c-2.836 4.084-6.532 7.35-10.985 9.71-.697-.898-1.461-1.717-2.273-2.433-4.348-3.836-9.821-4.164-13.015-.778a5.958 5.958 0 0 0-1.571 5.076 5.935 5.935 0 0 0 3.104 4.316c3.079 1.638 6.33.714 7.554.367a42.806 42.806 0 0 0 4.83-1.682c.711 1.341 1.32 2.868 1.812 4.543-7.73 4.097-13.71 10.11-16.423 16.525l-.026.063C.085 41.139-.199 45.15 1.06 48.545c1.395 3.756 4.967 6.28 8.889 6.28.564 0 1.133-.053 1.69-.156 1.518-.28 3.008-.906 4.429-1.858 2.847-1.91 4.908-5.147 6.299-9.898 1.009-3.443 1.734-9.92 1.08-16.632a45.247 45.247 0 0 0-.662-4.492c4.598-2.039 9.444-3.188 14.026-3.326l.221-.007zM46.488 39.752H37.5v7.343h-3.572V28.964H47.09v3.328H37.5v4.132h8.988zM71.716 34.48l-.5 3.355c-.55-.246-1.344-.401-2.023-.401-1.549 0-2.612.958-2.612 2.823v6.838H63.24v-12.55h3.24v1.373c.78-1.178 1.97-1.71 3.494-1.71.717 0 1.28.104 1.742.273M76.164 39.635h5.493c-.307-1.605-1.268-2.512-2.702-2.512-1.574 0-2.496.958-2.79 2.512m8.846 1.166c0 .388-.025.855-.063 1.14H76.15c.359 1.813 1.614 2.602 3.189 2.602 1.075 0 2.24-.44 3.136-1.204l1.959 2.176c-1.408 1.308-3.2 1.904-5.287 1.904-3.803 0-6.44-2.616-6.44-6.566 0-3.95 2.56-6.644 6.273-6.644 3.572 0 6.018 2.68 6.03 6.592M101.254 43.352l2.663-8.806h3.496l-4.2 12.549h-3.815l-2.753-8.483-2.727 8.483h-3.79l-4.2-12.55h3.56l2.65 8.768 2.778-8.767h3.522zM113.041 47.095H109.7v-12.55h3.341v12.55zm.448-16.655c0 1.218-.934 2.15-2.138 2.15-1.204 0-2.126-.932-2.126-2.15 0-1.217.922-2.176 2.126-2.176 1.204 0 2.138.959 2.138 2.176zM116.673 47.095h3.341v-18.13h-3.341zM123.368 47.095h3.342v-18.13h-3.342zM55.994 42.77c-.886 1.25-1.898 1.864-3.036 1.864-.936 0-1.569-.537-1.569-1.38 0-.841.633-1.363 1.822-1.49l2.783-.358v1.364zm4.275 1.764c-.607 0-.91-.41-.91-1.2v-4.57c0-2.936-2.176-4.622-5.39-4.622-2.388 0-4.237 1.16-5.003 3.157.77.3 2.19.868 2.885 1.147.139-1.076.893-1.725 2.068-1.725 1.316 0 2.075.69 2.075 1.838v.562l-3.416.357c-2.808.281-4.452 1.737-4.452 4.06 0 2.374 1.821 3.88 4.022 3.88 1.695 0 2.86-.638 3.972-1.838h.152c.531 1.15 1.493 1.737 2.859 1.737.632 0 1.214-.077 1.746-.256V44.42c-.127.052-.43.114-.608.114z"/></g></svg>
